<svg width="24" height="24" viewBox="0 0 24 24" fill="none" xmlns="http://www.w3.org/2000/svg">
<g clip-path="url(#clip0_760_3674)">
<path d="M13.7809 2.79275L8.07393 8.49975L10.0739 10.4998L4.27393 16.2998L5.68293 17.7188L12.8999 10.4998L10.8999 8.49975L15.1999 4.20675L17.9879 6.99975L17.9879 1.49975C17.9879 1.10192 17.8299 0.720396 17.5486 0.439091C17.2673 0.157785 16.8858 -0.000249863 16.4879 -0.000249863L10.9879 -0.000249863L13.7809 2.79275Z" fill="#525252"/>
<path d="M20.976 22L0 22L0 24L20.976 24C21.7716 24 22.5347 23.6839 23.0973 23.1213C23.6599 22.5587 23.976 21.7956 23.976 21L23.976 0H21.976L21.976 21C21.976 21.2652 21.8706 21.5196 21.6831 21.7071C21.4956 21.8946 21.2412 22 20.976 22Z" fill="#525252"/>
</g>
<defs>
<clipPath id="clip0_760_3674">
<rect width="24" height="24" fill="white" transform="matrix(0 -1 1 0 0 24)"/>
</clipPath>
</defs>
</svg>
