<svg width="24" height="24" viewBox="0 0 24 24" fill="none" xmlns="http://www.w3.org/2000/svg">
<g clip-path="url(#clip0_760_3677)">
<path d="M23.9761 17.2685L19.8511 23.9525L18.1511 22.9015L22.2761 16.2175L23.9761 17.2685ZM7.77614 1.7685L6.72914 0.0625L-0.00585938 4.1845L1.03714 5.8895L7.77614 1.7685ZM20.1801 5.2345L22.0801 3.3345L20.6681 1.9185L18.7771 3.8095C17.4118 2.72675 15.7422 2.09766 14.0018 2.01016C12.2614 1.92267 10.5372 2.38114 9.07014 3.3215L2.30814 7.0705C1.94829 7.30853 1.64587 7.62361 1.42278 7.99291C1.19968 8.36221 1.0615 8.7765 1.01824 9.20578C0.974978 9.63506 1.02771 10.0686 1.17263 10.475C1.31755 10.8814 1.55102 11.2505 1.85614 11.5555L12.4401 22.1435C12.7086 22.4148 13.0282 22.6302 13.3804 22.7773C13.7326 22.9244 14.1105 23.0003 14.4921 23.0005C14.6175 23.0003 14.7427 22.9926 14.8671 22.9775C15.3062 22.924 15.727 22.77 16.0969 22.5276C16.4668 22.2851 16.7759 21.9607 17.0001 21.5795L20.9281 14.5935C21.7437 13.1346 22.108 11.4665 21.9748 9.80046C21.8417 8.1344 21.2171 6.54533 20.1801 5.2345ZM3.00014 18.2835C2.99427 19.1028 3.20155 19.9096 3.60164 20.6246C4.00173 21.3396 4.58088 21.9383 5.28223 22.3619C5.98359 22.7855 6.78304 23.0195 7.6021 23.0408C8.42117 23.0621 9.23171 22.87 9.95414 22.4835L3.56014 16.0835C3.19697 16.7602 3.00472 17.5155 3.00014 18.2835Z" fill="#59C55E"/>
</g>
<defs>
<clipPath id="clip0_760_3677">
<rect width="24" height="24" fill="white"/>
</clipPath>
</defs>
</svg>
