<svg width="24" height="24" viewBox="0 0 24 24" fill="none" xmlns="http://www.w3.org/2000/svg">
<g clip-path="url(#clip0_760_3691)">
<path d="M0 3V11H11V0H3C2.20435 0 1.44129 0.31607 0.87868 0.87868C0.31607 1.44129 0 2.20435 0 3H0Z" fill="#525252"/>
<path d="M0 21C0 21.7956 0.31607 22.5587 0.87868 23.1213C1.44129 23.6839 2.20435 24 3 24H11V13H0V21Z" fill="#525252"/>
<path d="M13 13V24H21C21.7956 24 22.5587 23.6839 23.1213 23.1213C23.6839 22.5587 24 21.7956 24 21V13H13Z" fill="#525252"/>
<path d="M17 11H19V7H23V5H19V1H17V5H13V7H17V11Z" fill="#525252"/>
</g>
<defs>
<clipPath id="clip0_760_3691">
<rect width="24" height="24" fill="white"/>
</clipPath>
</defs>
</svg>
